<?xml version="1.0" standalone="no"?>
<!DOCTYPE svg PUBLIC "-//W3C//DTD SVG 20010904//EN"
 "http://www.w3.org/TR/2001/REC-SVG-20010904/DTD/svg10.dtd">
<svg version="1.0" xmlns="http://www.w3.org/2000/svg"
 width="348.000000pt" height="239.000000pt" viewBox="0 0 348.000000 239.000000"
 preserveAspectRatio="xMidYMid meet">

<g transform="translate(0.000000,239.000000) scale(0.100000,-0.100000)"
fill="#000000" stroke="none">
<path d="M2242 2375 c-74 -22 -72 -20 -61 -58 11 -42 -1 -81 -31 -97 -25 -14
-51 -6 -88 25 l-29 24 -43 -44 -43 -44 31 -36 c59 -67 27 -123 -63 -113 -45 5
-45 5 -54 -31 -19 -74 -18 -86 9 -89 34 -5 70 -40 70 -69 0 -38 -17 -60 -56
-73 -34 -12 -36 -14 -29 -47 13 -72 21 -80 76 -75 86 8 112 -38 62 -110 l-26
-39 38 -39 c44 -45 55 -48 72 -21 6 10 25 23 41 29 58 20 101 -31 82 -98 -8
-29 -7 -30 43 -45 69 -20 74 -19 80 15 8 38 41 70 72 70 34 0 75 -42 75 -75 0
-20 4 -25 18 -21 9 2 36 10 60 17 l43 12 -7 43 c-4 26 -1 51 7 65 25 49 52 51
104 9 l39 -31 38 38 c21 20 38 41 38 46 0 4 -11 23 -25 41 -51 68 -21 122 64
114 l49 -5 11 43 c16 62 14 84 -6 84 -10 0 -33 9 -50 20 -43 26 -45 69 -7 99
15 12 32 21 38 21 34 1 38 16 22 73 l-16 56 -49 -6 c-28 -3 -57 -1 -69 6 -31
16 -29 65 4 108 l26 35 -28 30 c-49 50 -62 54 -95 22 -31 -29 -80 -37 -102
-15 -7 7 -12 37 -11 71 l1 58 -36 7 c-20 3 -46 9 -57 11 -17 4 -23 0 -28 -23
-10 -38 -45 -73 -73 -73 -29 0 -73 42 -73 69 0 28 -9 30 -58 16z m256 -317
c47 -22 94 -78 113 -135 16 -48 7 -141 -17 -189 -45 -87 -167 -141 -262 -115
-128 34 -210 162 -182 283 37 153 199 225 348 156z"/>
<path d="M3130 2130 c0 -32 -30 -70 -56 -70 -19 0 -56 19 -66 33 -4 7 -12 6
-23 -3 -31 -26 -35 -45 -16 -84 11 -20 17 -45 14 -56 -7 -26 -41 -50 -71 -50
-21 0 -23 -4 -20 -37 3 -33 7 -38 35 -44 18 -3 40 -12 48 -19 20 -17 19 -69
-2 -92 -16 -18 -15 -20 15 -50 l31 -32 24 22 c44 42 107 18 107 -41 0 -25 3
-27 45 -27 43 0 45 1 45 30 0 59 60 88 109 54 21 -15 24 -15 52 12 l29 28 -20
21 c-42 44 -15 115 44 115 26 0 27 2 24 42 -3 41 -4 43 -42 49 -57 9 -84 52
-50 79 36 31 36 48 -1 75 l-34 27 -27 -21 c-15 -12 -37 -21 -50 -21 -26 0 -54
34 -54 67 0 21 -5 23 -45 23 -43 0 -45 -1 -45 -30z m115 -144 c125 -53 79
-246 -58 -246 -78 0 -127 50 -127 130 0 104 86 157 185 116z"/>
<path d="M459 1588 c0 -2 -2 -23 -4 -46 -7 -86 -70 -110 -123 -46 l-30 36 -39
-20 c-58 -30 -68 -46 -49 -74 9 -12 16 -37 16 -54 0 -56 -53 -80 -112 -50 -26
14 -28 13 -47 -20 -29 -49 -37 -84 -19 -84 39 0 74 -81 50 -116 -11 -18 -48
-34 -76 -34 -24 0 -26 -3 -26 -49 0 -68 5 -78 39 -73 16 2 42 -3 60 -12 25
-14 31 -23 31 -51 0 -26 -8 -40 -36 -64 l-37 -30 27 -45 c33 -56 43 -62 65
-42 9 9 31 19 48 22 60 12 91 -51 58 -115 l-14 -29 56 -28 c46 -24 57 -26 61
-14 10 27 60 70 82 70 34 0 70 -44 70 -85 0 -34 1 -35 38 -35 65 0 82 9 82 42
0 38 25 85 50 93 25 8 51 -6 84 -46 l26 -31 50 32 c28 18 50 33 50 34 0 1 -9
19 -20 41 -25 49 -25 67 0 90 18 17 36 17 114 3 14 -2 26 8 43 37 29 51 29 59
-2 73 -34 16 -57 64 -45 96 11 30 38 46 79 46 31 0 31 1 31 53 0 56 -11 84
-29 73 -20 -13 -71 5 -87 29 -22 34 -10 83 27 104 16 9 29 18 29 22 0 3 -13
26 -30 52 l-30 48 -29 -16 c-38 -19 -95 -19 -111 0 -12 15 -10 61 5 110 5 17
-3 25 -47 48 l-52 27 -14 -27 c-45 -89 -126 -80 -139 16 l-6 41 -58 0 c-33 0
-59 -1 -60 -2z m186 -327 c195 -89 174 -369 -34 -439 -107 -37 -230 17 -281
123 -32 67 -26 164 15 231 58 93 197 133 300 85z"/>
<path d="M2350 1309 c0 -47 -16 -69 -51 -69 -24 0 -32 7 -46 34 l-16 35 -39
-20 c-43 -22 -44 -23 -23 -73 27 -64 -13 -96 -75 -61 -35 20 -37 19 -60 -24
l-20 -39 35 -21 c60 -35 36 -101 -37 -101 -26 0 -28 -2 -28 -45 0 -45 0 -45
34 -45 38 0 66 -21 66 -51 0 -20 -28 -53 -51 -61 -12 -4 -11 -12 4 -42 15 -32
21 -37 40 -31 48 15 78 17 92 5 19 -16 19 -49 0 -74 -22 -29 -19 -33 25 -56
l40 -21 10 25 c9 24 37 46 59 46 22 0 51 -41 51 -70 0 -29 2 -30 45 -30 l45 0
0 40 c0 30 5 42 21 50 31 17 67 4 84 -31 11 -21 20 -28 28 -22 7 5 25 17 40
27 26 16 27 19 14 34 -15 17 -20 40 -18 74 2 25 43 32 79 14 17 -9 33 -16 36
-16 3 0 15 18 26 40 19 38 20 41 3 47 -33 11 -53 36 -53 63 0 21 7 30 30 40
16 7 39 10 50 7 18 -5 20 0 20 44 l0 49 -39 0 c-68 0 -83 56 -25 95 l31 21
-19 37 c-21 42 -27 43 -69 21 -58 -30 -96 14 -65 74 9 17 16 33 16 36 0 3 -18
15 -39 26 l-39 20 -21 -35 c-16 -28 -27 -35 -51 -35 -34 0 -44 15 -44 67 0 33
0 33 -48 33 -47 0 -48 -1 -48 -31z m130 -251 c54 -37 71 -68 72 -127 0 -84
-53 -140 -140 -149 -61 -5 -121 24 -148 73 -24 46 -16 136 17 171 52 57 141
71 199 32z"/>
<path d="M1575 1204 c-39 -20 -38 -17 -20 -50 22 -42 19 -71 -10 -90 -24 -15
-29 -15 -65 -1 l-40 15 -15 -28 c-21 -42 -19 -70 5 -70 27 0 60 -35 60 -63 0
-24 -37 -67 -58 -67 -20 0 -23 -19 -7 -56 12 -28 19 -35 32 -29 89 37 146 -2
109 -76 -9 -18 -16 -33 -16 -34 0 -2 19 -10 42 -19 42 -17 57 -12 58 20 0 20
39 47 67 47 30 0 63 -34 63 -64 0 -23 0 -23 51 -3 34 14 40 20 34 38 -15 45
-17 87 -5 101 16 19 69 19 97 0 20 -14 22 -13 37 25 21 52 20 60 -4 60 -29 0
-60 36 -60 69 0 30 38 71 66 71 18 0 17 7 -5 50 -18 37 -19 38 -68 19 -47 -19
-83 0 -83 44 0 18 7 42 15 54 15 21 14 23 -14 38 -44 22 -64 18 -81 -17 -8
-17 -23 -36 -32 -42 -27 -16 -71 4 -87 42 -16 36 -24 38 -66 16z m196 -169
c64 -34 87 -120 49 -183 -43 -70 -145 -79 -207 -17 -28 28 -33 40 -33 82 1 26
6 58 14 71 31 57 115 79 177 47z"/>
<path d="M1270 807 c0 -14 -9 -35 -19 -48 -16 -20 -23 -22 -47 -14 -20 7 -32
20 -39 43 -10 35 -13 36 -68 21 -32 -9 -36 -12 -27 -29 14 -26 13 -73 -2 -88
-19 -19 -44 -14 -78 14 -30 26 -31 26 -51 8 -38 -35 -41 -51 -14 -78 52 -52
15 -112 -54 -88 -28 10 -30 9 -40 -20 -18 -51 -14 -68 14 -68 35 0 68 -35 60
-63 -9 -29 -33 -47 -63 -47 -18 0 -22 -4 -18 -17 3 -10 8 -31 12 -46 6 -27 8
-28 50 -21 72 11 98 -33 53 -91 l-22 -27 31 -31 32 -31 28 27 c52 50 99 28 89
-43 -6 -45 -5 -46 44 -55 34 -6 36 -5 42 24 4 16 18 38 32 47 23 15 27 15 49
0 13 -8 27 -29 31 -46 7 -34 7 -33 55 -16 34 12 35 14 35 67 0 53 1 54 31 57
20 2 36 -4 49 -18 25 -27 39 -25 69 11 l26 31 -30 28 c-33 31 -37 47 -17 75
11 14 23 17 60 13 43 -5 46 -4 52 21 3 14 8 33 11 43 3 12 -3 18 -25 23 -70
15 -80 83 -16 106 38 14 40 21 24 66 -10 29 -12 30 -54 25 -74 -8 -97 31 -51
85 l25 28 -31 32 -31 32 -34 -29 c-41 -36 -58 -37 -78 -6 -13 19 -14 32 -7 60
10 34 9 35 -21 41 -18 4 -40 9 -49 11 -14 4 -18 -1 -18 -19z m39 -264 c14 -11
37 -35 49 -54 20 -28 23 -43 19 -88 -3 -48 -9 -59 -45 -93 -37 -34 -47 -38
-93 -38 -85 0 -147 42 -164 113 -16 64 25 144 90 173 39 18 110 12 144 -13z"/>
</g>
</svg>
